<?xml version="1.0" encoding="UTF-8" standalone="no"?>
<!DOCTYPE svg PUBLIC "-//W3C//DTD SVG 1.1//EN"
 "http://www.w3.org/Graphics/SVG/1.1/DTD/svg11.dtd">
<!-- Generated by graphviz version 2.42.4 (0)
 -->
<!-- Title: G Pages: 1 -->
<svg width="1068pt" height="263pt"
 viewBox="0.00 0.00 1068.40 263.40" xmlns="http://www.w3.org/2000/svg" xmlns:xlink="http://www.w3.org/1999/xlink">
<g id="graph0" class="graph" transform="scale(1 1) rotate(0) translate(25.2 238.2)">
<title>G</title>
<polygon fill="white" stroke="transparent" points="-25.2,25.2 -25.2,-238.2 1043.2,-238.2 1043.2,25.2 -25.2,25.2"/>
<!-- p -->
<g id="node1" class="node">
<title>p</title>
<path fill="#f6f8fa" stroke="#57606a" stroke-width="1.35" d="M141,-122C141,-122 12,-122 12,-122 6,-122 0,-116 0,-110 0,-110 0,-98 0,-98 0,-92 6,-86 12,-86 12,-86 141,-86 141,-86 147,-86 153,-92 153,-98 153,-98 153,-110 153,-110 153,-116 147,-122 141,-122"/>
<text text-anchor="middle" x="76.5" y="-107.2" font-family="Helvetica,sans-Serif" font-size="11.00">parent event</text>
<text text-anchor="middle" x="76.5" y="-95.2" font-family="Helvetica,sans-Serif" font-size="11.00">state root + causal root</text>
</g>
<!-- cos -->
<g id="node2" class="node">
<title>cos</title>
<path fill="#ddf4ff" stroke="#0969da" stroke-width="1.35" d="M462,-213C462,-213 406,-213 406,-213 400,-213 394,-207 394,-201 394,-201 394,-189 394,-189 394,-183 400,-177 406,-177 406,-177 462,-177 462,-177 468,-177 474,-183 474,-189 474,-189 474,-201 474,-201 474,-207 468,-213 462,-213"/>
<text text-anchor="middle" x="434" y="-198.2" font-family="Helvetica,sans-Serif" font-size="11.00">Friedmann</text>
<text text-anchor="middle" x="434" y="-186.2" font-family="Helvetica,sans-Serif" font-size="11.00">cosmology</text>
</g>
<!-- p&#45;&gt;cos -->
<g id="edge1" class="edge">
<title>p&#45;&gt;cos</title>
<path fill="none" stroke="#57606a" stroke-width="1.3" d="M107.59,-122.17C131.72,-135.88 166.91,-153.99 200,-164 262.71,-182.98 338.42,-190.35 386.14,-193.2"/>
<polygon fill="#57606a" stroke="#57606a" stroke-width="1.3" points="386.21,-195.83 393.85,-193.64 386.51,-190.59 386.21,-195.83"/>
</g>
<!-- grav -->
<g id="node3" class="node">
<title>grav</title>
<path fill="#fff8c5" stroke="#9a6700" stroke-width="1.35" d="M286,-151C286,-151 231,-151 231,-151 225,-151 219,-145 219,-139 219,-139 219,-127 219,-127 219,-121 225,-115 231,-115 231,-115 286,-115 286,-115 292,-115 298,-121 298,-127 298,-127 298,-139 298,-139 298,-145 292,-151 286,-151"/>
<text text-anchor="middle" x="258.5" y="-136.2" font-family="Helvetica,sans-Serif" font-size="11.00">Newtonian</text>
<text text-anchor="middle" x="258.5" y="-124.2" font-family="Helvetica,sans-Serif" font-size="11.00">gravity</text>
</g>
<!-- p&#45;&gt;grav -->
<g id="edge2" class="edge">
<title>p&#45;&gt;grav</title>
<path fill="none" stroke="#57606a" stroke-width="1.3" d="M153.05,-116.17C172.92,-119.37 193.75,-122.73 211.54,-125.6"/>
<polygon fill="#57606a" stroke="#57606a" stroke-width="1.3" points="211.14,-128.19 218.96,-126.79 211.98,-123.01 211.14,-128.19"/>
</g>
<!-- field -->
<g id="node4" class="node">
<title>field</title>
<path fill="#dafbe1" stroke="#1a7f37" stroke-width="1.35" d="M476,-91C476,-91 392,-91 392,-91 386,-91 380,-85 380,-79 380,-79 380,-67 380,-67 380,-61 386,-55 392,-55 392,-55 476,-55 476,-55 482,-55 488,-61 488,-67 488,-67 488,-79 488,-79 488,-85 482,-91 476,-91"/>
<text text-anchor="middle" x="434" y="-76.2" font-family="Helvetica,sans-Serif" font-size="11.00">integer Maxwell</text>
<text text-anchor="middle" x="434" y="-64.2" font-family="Helvetica,sans-Serif" font-size="11.00">field step</text>
</g>
<!-- p&#45;&gt;field -->
<g id="edge3" class="edge">
<title>p&#45;&gt;field</title>
<path fill="none" stroke="#57606a" stroke-width="1.3" d="M153.33,-97.39C218.64,-91.69 311.69,-83.58 372.21,-78.3"/>
<polygon fill="#57606a" stroke="#57606a" stroke-width="1.3" points="372.55,-80.91 379.79,-77.64 372.09,-75.68 372.55,-80.91"/>
</g>
<!-- scalar -->
<g id="node5" class="node">
<title>scalar</title>
<path fill="#fbefff" stroke="#8250df" stroke-width="1.35" d="M305,-36C305,-36 212,-36 212,-36 206,-36 200,-30 200,-24 200,-24 200,-12 200,-12 200,-6 206,0 212,0 212,0 305,0 305,0 311,0 317,-6 317,-12 317,-12 317,-24 317,-24 317,-30 311,-36 305,-36"/>
<text text-anchor="middle" x="258.5" y="-21.2" font-family="Helvetica,sans-Serif" font-size="11.00">scalar refinement</text>
<text text-anchor="middle" x="258.5" y="-9.2" font-family="Helvetica,sans-Serif" font-size="11.00">criterion</text>
</g>
<!-- p&#45;&gt;scalar -->
<g id="edge4" class="edge">
<title>p&#45;&gt;scalar</title>
<path fill="none" stroke="#57606a" stroke-width="1.3" d="M115.23,-85.97C143.67,-72.38 182.77,-53.7 212.78,-39.36"/>
<polygon fill="#57606a" stroke="#57606a" stroke-width="1.3" points="214.18,-41.61 219.82,-36 211.92,-36.87 214.18,-41.61"/>
</g>
<!-- join -->
<g id="node7" class="node">
<title>join</title>
<path fill="#eaeef2" stroke="#57606a" stroke-width="1.8" d="M695,-121C695,-121 563,-121 563,-121 557,-121 551,-115 551,-109 551,-109 551,-97 551,-97 551,-91 557,-85 563,-85 563,-85 695,-85 695,-85 701,-85 707,-91 707,-97 707,-97 707,-109 707,-109 707,-115 701,-121 695,-121"/>
<text text-anchor="middle" x="629" y="-106.2" font-family="Helvetica,sans-Serif" font-size="11.00">causal join</text>
<text text-anchor="middle" x="629" y="-94.2" font-family="Helvetica,sans-Serif" font-size="11.00">new authenticated state</text>
</g>
<!-- cos&#45;&gt;join -->
<g id="edge6" class="edge">
<title>cos&#45;&gt;join</title>
<path fill="none" stroke="#57606a" stroke-width="1.3" d="M474.21,-178.39C483.99,-174.12 494.41,-169.48 504,-165 531.69,-152.07 562.41,-136.71 586.35,-124.52"/>
<polygon fill="#57606a" stroke="#57606a" stroke-width="1.3" points="587.75,-126.76 593.23,-121.01 585.36,-122.08 587.75,-126.76"/>
</g>
<!-- decay -->
<g id="node6" class="node">
<title>decay</title>
<path fill="#ffebe9" stroke="#cf222e" stroke-width="1.35" d="M492,-152C492,-152 376,-152 376,-152 370,-152 364,-146 364,-140 364,-140 364,-128 364,-128 364,-122 370,-116 376,-116 376,-116 492,-116 492,-116 498,-116 504,-122 504,-128 504,-128 504,-140 504,-140 504,-146 498,-152 492,-152"/>
<text text-anchor="middle" x="434" y="-137.2" font-family="Helvetica,sans-Serif" font-size="11.00">committed stochastic</text>
<text text-anchor="middle" x="434" y="-125.2" font-family="Helvetica,sans-Serif" font-size="11.00">decay</text>
</g>
<!-- grav&#45;&gt;decay -->
<g id="edge5" class="edge">
<title>grav&#45;&gt;decay</title>
<path fill="none" stroke="#57606a" stroke-width="1.3" d="M298.01,-133.22C315.18,-133.32 336.05,-133.44 356.2,-133.56"/>
<polygon fill="#57606a" stroke="#57606a" stroke-width="1.3" points="356.36,-136.18 363.88,-133.6 356.39,-130.93 356.36,-136.18"/>
</g>
<!-- field&#45;&gt;join -->
<g id="edge8" class="edge">
<title>field&#45;&gt;join</title>
<path fill="none" stroke="#57606a" stroke-width="1.3" d="M488.25,-81.28C505.29,-83.93 524.6,-86.93 543.31,-89.84"/>
<polygon fill="#57606a" stroke="#57606a" stroke-width="1.3" points="542.9,-92.43 550.72,-90.99 543.71,-87.24 542.9,-92.43"/>
</g>
<!-- scalar&#45;&gt;join -->
<g id="edge9" class="edge">
<title>scalar&#45;&gt;join</title>
<path fill="none" stroke="#57606a" stroke-width="1.3" d="M317.37,-18.28C367.6,-19.85 441.81,-25.37 504,-43 534.78,-51.73 567.26,-67.72 591.25,-81"/>
<polygon fill="#57606a" stroke="#57606a" stroke-width="1.3" points="590.27,-83.46 598.1,-84.85 592.84,-78.89 590.27,-83.46"/>
</g>
<!-- decay&#45;&gt;join -->
<g id="edge7" class="edge">
<title>decay&#45;&gt;join</title>
<path fill="none" stroke="#57606a" stroke-width="1.3" d="M504.13,-122.9C516.79,-120.86 530.13,-118.72 543.19,-116.62"/>
<polygon fill="#57606a" stroke="#57606a" stroke-width="1.3" points="543.84,-119.18 550.83,-115.39 543.01,-113.99 543.84,-119.18"/>
</g>
<!-- fork -->
<g id="node8" class="node">
<title>fork</title>
<path fill="#ddf4ff" stroke="#0969da" stroke-width="1.35" d="M944,-152C944,-152 828,-152 828,-152 822,-152 816,-146 816,-140 816,-140 816,-128 816,-128 816,-122 822,-116 828,-116 828,-116 944,-116 944,-116 950,-116 956,-122 956,-128 956,-128 956,-140 956,-140 956,-146 950,-152 944,-152"/>
<text text-anchor="middle" x="886" y="-137.2" font-family="Helvetica,sans-Serif" font-size="11.00">counterfactual fork</text>
<text text-anchor="middle" x="886" y="-125.2" font-family="Helvetica,sans-Serif" font-size="11.00">copy&#45;on&#45;write regions</text>
</g>
<!-- join&#45;&gt;fork -->
<g id="edge10" class="edge">
<title>join&#45;&gt;fork</title>
<path fill="none" stroke="#57606a" stroke-width="1.3" d="M707.2,-112.39C739.23,-116.28 776.3,-120.79 808.27,-124.67"/>
<polygon fill="#57606a" stroke="#57606a" stroke-width="1.3" points="808.1,-127.3 815.86,-125.59 808.73,-122.08 808.1,-127.3"/>
</g>
<!-- memo -->
<g id="node9" class="node">
<title>memo</title>
<path fill="#fff1e5" stroke="#bc4c00" stroke-width="1.35" d="M1006,-91C1006,-91 766,-91 766,-91 760,-91 754,-85 754,-79 754,-79 754,-67 754,-67 754,-61 760,-55 766,-55 766,-55 1006,-55 1006,-55 1012,-55 1018,-61 1018,-67 1018,-67 1018,-79 1018,-79 1018,-85 1012,-91 1006,-91"/>
<text text-anchor="middle" x="886" y="-76.2" font-family="Helvetica,sans-Serif" font-size="11.00">causal memo key</text>
<text text-anchor="middle" x="886" y="-64.2" font-family="Helvetica,sans-Serif" font-size="11.00">law + state + params + incoming boundary</text>
</g>
<!-- join&#45;&gt;memo -->
<g id="edge11" class="edge">
<title>join&#45;&gt;memo</title>
<path fill="none" stroke="#57606a" stroke-width="1.3" stroke-dasharray="5,2" d="M707.2,-93.92C719.69,-92.45 732.95,-90.89 746.38,-89.31"/>
<polygon fill="#57606a" stroke="#57606a" stroke-width="1.3" points="746.71,-91.91 753.85,-88.43 746.09,-86.7 746.71,-91.91"/>
</g>
</g>
</svg>
